<svg width="474" height="63" viewBox="0 0 474 63" fill="none" xmlns="http://www.w3.org/2000/svg">
<path d="M57.42 31.08C57.42 37.38 56.25 42.9 53.91 47.64C51.63 52.32 48.36 55.98 44.1 58.62C39.84 61.26 34.74 62.58 28.8 62.58C22.86 62.58 17.73 61.35 13.41 58.89C9.15 56.43 5.85 52.92 3.51 48.36C1.23 43.74 0.0900002 38.25 0.0900002 31.89C0.0900002 25.77 1.23 20.43 3.51 15.87C5.85 11.25 9.15 7.68 13.41 5.16C17.73 2.58 22.86 1.29 28.8 1.29C34.8 1.29 39.93 2.55 44.19 5.07C48.45 7.53 51.72 11.01 54 15.51C56.28 19.95 57.42 25.14 57.42 31.08ZM47.97 31.35C47.97 25.95 47.16 21.3 45.54 17.4C43.92 13.44 41.64 10.41 38.7 8.31C35.82 6.15 32.43 5.07 28.53 5.07C22.71 5.07 18.09 7.41 14.67 12.09C11.25 16.71 9.54 23.13 9.54 31.35C9.54 39.81 11.13 46.5 14.31 51.42C17.55 56.34 22.41 58.8 28.89 58.8C35.31 58.8 40.08 56.49 43.2 51.87C46.38 47.25 47.97 40.41 47.97 31.35ZM110.545 57.45V59.88L99.1153 61.95H97.1353V55.02H96.6853C94.2853 57.36 91.9453 59.19 89.6653 60.51C87.3853 61.77 84.8053 62.4 81.9253 62.4C78.2053 62.4 75.2953 61.2 73.1953 58.8C71.1553 56.34 70.1353 52.05 70.1353 45.93V27.66C70.1353 25.2 69.7153 23.73 68.8753 23.25C68.0953 22.71 66.4753 22.41 64.0153 22.35V19.83L75.6253 18.48H77.6053V44.76C77.6053 49.32 78.3553 52.44 79.8553 54.12C81.4153 55.8 83.3653 56.64 85.7053 56.64C87.9853 56.64 89.9353 56.13 91.5553 55.11C93.2353 54.09 94.9753 52.8 96.7753 51.24V27.57C96.7753 25.17 96.2653 23.7 95.2453 23.16C94.2853 22.62 92.3653 22.35 89.4853 22.35V19.83L102.085 18.48H104.245V51.51C104.245 54.15 104.605 55.8 105.325 56.46C106.045 57.12 107.485 57.45 109.645 57.45H110.545ZM129.743 18.12V27.39H130.013C132.293 24.03 134.243 21.57 135.863 20.01C137.543 18.39 139.463 17.58 141.623 17.58C143.363 17.58 144.653 18.03 145.493 18.93C146.393 19.83 146.843 21.06 146.843 22.62C146.843 24.3 146.423 25.53 145.583 26.31C144.803 27.09 143.903 27.48 142.883 27.48C141.923 27.48 141.053 27.24 140.273 26.76C139.553 26.22 138.923 25.71 138.383 25.23C137.843 24.69 137.393 24.42 137.033 24.42C136.013 24.42 134.843 25.2 133.523 26.76C132.203 28.32 131.003 30 129.923 31.8V52.32C129.923 54.18 130.163 55.59 130.643 56.55C131.123 57.51 131.963 58.14 133.163 58.44C134.423 58.74 136.163 58.89 138.383 58.89V61.5H115.883V58.89C117.863 58.89 119.303 58.74 120.203 58.44C121.163 58.08 121.763 57.48 122.003 56.64C122.303 55.74 122.453 54.45 122.453 52.77V28.02C122.453 26.4 122.303 25.2 122.003 24.42C121.763 23.58 120.833 23.16 119.213 23.16C118.313 23.16 117.623 23.19 117.143 23.25C116.663 23.31 116.423 23.34 116.423 23.34V20.82L127.583 18.12H129.743ZM208.245 19.47H205.545C204.285 14.49 202.605 10.8 200.505 8.4C198.405 6 195.075 4.83 190.515 4.89C187.455 4.89 185.085 5.61 183.405 7.05C181.725 8.43 180.885 10.53 180.885 13.35C180.885 15.57 181.515 17.49 182.775 19.11C184.035 20.67 185.685 22.08 187.725 23.34C189.765 24.6 191.895 25.89 194.115 27.21C196.095 28.35 198.075 29.49 200.055 30.63C202.095 31.77 203.925 33.06 205.545 34.5C207.225 35.94 208.545 37.62 209.505 39.54C210.525 41.46 211.035 43.77 211.035 46.47C211.035 49.95 210.225 52.89 208.605 55.29C207.045 57.69 204.885 59.52 202.125 60.78C199.365 61.98 196.245 62.58 192.765 62.58C189.645 62.58 187.095 62.34 185.115 61.86C183.195 61.44 181.665 61.02 180.525 60.6C179.445 60.12 178.545 59.88 177.825 59.88C177.225 59.88 176.685 60.15 176.205 60.69C175.725 61.23 175.455 61.95 175.395 62.85H172.605L171.795 43.41H174.585C175.665 47.55 176.925 50.73 178.365 52.95C179.805 55.11 181.575 56.61 183.675 57.45C185.835 58.23 188.445 58.62 191.505 58.62C194.865 58.62 197.535 57.9 199.515 56.46C201.495 54.96 202.485 52.5 202.485 49.08C202.485 46.44 201.735 44.25 200.235 42.51C198.795 40.77 196.935 39.24 194.655 37.92C192.375 36.54 190.005 35.16 187.545 33.78C185.145 32.4 182.835 30.93 180.615 29.37C178.395 27.81 176.565 25.95 175.125 23.79C173.745 21.63 173.055 18.99 173.055 15.87C173.055 12.69 173.835 10.05 175.395 7.95C176.955 5.79 179.025 4.14 181.605 3C184.185 1.86 187.035 1.29 190.155 1.29C192.915 1.29 195.045 1.53 196.545 2.01C198.045 2.43 199.215 2.88 200.055 3.36C200.955 3.84 201.765 4.08 202.485 4.08C203.925 4.08 204.855 3.21 205.275 1.47H207.615L208.245 19.47ZM251.346 48.63L253.056 49.89C251.976 52.17 250.716 54.27 249.276 56.19C247.836 58.05 246.066 59.55 243.966 60.69C241.926 61.83 239.346 62.4 236.226 62.4C232.626 62.4 229.356 61.56 226.416 59.88C223.536 58.14 221.256 55.62 219.576 52.32C217.896 48.96 217.056 44.88 217.056 40.08C217.056 35.04 217.896 30.9 219.576 27.66C221.316 24.36 223.626 21.9 226.506 20.28C229.386 18.66 232.566 17.85 236.046 17.85C240.966 17.85 244.926 19.56 247.926 22.98C250.926 26.4 252.546 31.26 252.786 37.56H224.346C224.346 41.7 225.006 45.12 226.326 47.82C227.706 50.46 229.446 52.44 231.546 53.76C233.706 55.02 235.986 55.65 238.386 55.65C240.846 55.65 242.826 55.32 244.326 54.66C245.886 54 247.206 53.16 248.286 52.14C249.366 51.06 250.386 49.89 251.346 48.63ZM224.256 34.23H244.326C244.266 32.01 243.876 29.94 243.156 28.02C242.436 26.04 241.386 24.45 240.006 23.25C238.626 22.05 236.856 21.45 234.696 21.45C228.456 21.45 224.976 25.71 224.256 34.23ZM272.214 18.12V27.39H272.484C274.764 24.03 276.714 21.57 278.334 20.01C280.014 18.39 281.934 17.58 284.094 17.58C285.834 17.58 287.124 18.03 287.964 18.93C288.864 19.83 289.314 21.06 289.314 22.62C289.314 24.3 288.894 25.53 288.054 26.31C287.274 27.09 286.374 27.48 285.354 27.48C284.394 27.48 283.524 27.24 282.744 26.76C282.024 26.22 281.394 25.71 280.854 25.23C280.314 24.69 279.864 24.42 279.504 24.42C278.484 24.42 277.314 25.2 275.994 26.76C274.674 28.32 273.474 30 272.394 31.8V52.32C272.394 54.18 272.634 55.59 273.114 56.55C273.594 57.51 274.434 58.14 275.634 58.44C276.894 58.74 278.634 58.89 280.854 58.89V61.5H258.354V58.89C260.334 58.89 261.774 58.74 262.674 58.44C263.634 58.08 264.234 57.48 264.474 56.64C264.774 55.74 264.924 54.45 264.924 52.77V28.02C264.924 26.4 264.774 25.2 264.474 24.42C264.234 23.58 263.304 23.16 261.684 23.16C260.784 23.16 260.094 23.19 259.614 23.25C259.134 23.31 258.894 23.34 258.894 23.34V20.82L270.054 18.12H272.214ZM334.754 18.93V21.54C333.014 21.54 331.664 21.96 330.704 22.8C329.804 23.58 328.904 25.14 328.004 27.48L313.784 62.04H309.464L296.054 28.11C295.274 26.25 294.584 24.87 293.984 23.97C293.384 23.01 292.694 22.38 291.914 22.08C291.134 21.72 290.084 21.54 288.764 21.54V18.93H307.754V21.54C306.014 21.54 304.784 21.75 304.064 22.17C303.404 22.53 303.074 23.07 303.074 23.79C303.074 24.39 303.164 24.96 303.344 25.5C303.524 26.04 303.734 26.64 303.974 27.3L311.624 47.37L313.334 52.77H313.874L315.764 47.28L323.504 26.94C323.564 26.7 323.684 26.34 323.864 25.86C324.044 25.32 324.134 24.69 324.134 23.97C324.134 22.95 323.684 22.29 322.784 21.99C321.884 21.69 320.624 21.54 319.004 21.54V18.93H334.754ZM356.394 58.98V61.5H336.144V58.98C338.184 58.98 339.624 58.8 340.464 58.44C341.364 58.02 341.904 57.33 342.084 56.37C342.324 55.41 342.444 54.09 342.444 52.41V27.3C342.444 25.38 342.114 24.21 341.454 23.79C340.794 23.31 339.804 23.07 338.484 23.07C337.884 23.07 337.344 23.1 336.864 23.16C336.444 23.22 336.234 23.25 336.234 23.25V20.64L347.574 18.12H349.914V52.41C349.914 54.15 350.034 55.5 350.274 56.46C350.514 57.42 351.084 58.08 351.984 58.44C352.944 58.8 354.414 58.98 356.394 58.98ZM346.314 0.929997C347.874 0.929997 349.104 1.44 350.004 2.46C350.964 3.42 351.444 4.59 351.444 5.97C351.444 7.35 350.964 8.55 350.004 9.57C349.104 10.59 347.874 11.1 346.314 11.1C344.814 11.1 343.584 10.59 342.624 9.57C341.664 8.55 341.184 7.35 341.184 5.97C341.184 4.59 341.634 3.42 342.534 2.46C343.494 1.44 344.754 0.929997 346.314 0.929997ZM395.648 48.18L397.358 49.44C396.218 51.84 394.898 54.03 393.398 56.01C391.958 57.99 390.158 59.55 387.998 60.69C385.838 61.83 383.138 62.4 379.898 62.4C376.178 62.4 372.968 61.5 370.268 59.7C367.568 57.9 365.498 55.41 364.058 52.23C362.618 48.99 361.898 45.3 361.898 41.16C361.898 34.08 363.668 28.44 367.208 24.24C370.748 19.98 375.758 17.85 382.238 17.85C386.498 17.85 389.828 18.78 392.228 20.64C394.688 22.5 395.918 24.75 395.918 27.39C395.918 30.09 394.658 31.44 392.138 31.44C390.818 31.44 389.798 31.11 389.078 30.45C388.418 29.73 387.878 28.86 387.458 27.84C387.038 26.82 386.588 25.8 386.108 24.78C385.688 23.76 385.058 22.92 384.218 22.26C383.438 21.54 382.268 21.18 380.708 21.18C377.048 21.18 374.168 22.53 372.068 25.23C370.028 27.87 369.008 31.77 369.008 36.93C369.008 42.39 370.118 46.89 372.338 50.43C374.618 53.91 378.068 55.65 382.688 55.65C385.628 55.65 387.998 55.05 389.798 53.85C391.658 52.65 393.608 50.76 395.648 48.18ZM436.444 48.63L438.154 49.89C437.074 52.17 435.814 54.27 434.374 56.19C432.934 58.05 431.164 59.55 429.064 60.69C427.024 61.83 424.444 62.4 421.324 62.4C417.724 62.4 414.454 61.56 411.514 59.88C408.634 58.14 406.354 55.62 404.674 52.32C402.994 48.96 402.154 44.88 402.154 40.08C402.154 35.04 402.994 30.9 404.674 27.66C406.414 24.36 408.724 21.9 411.604 20.28C414.484 18.66 417.664 17.85 421.144 17.85C426.064 17.85 430.024 19.56 433.024 22.98C436.024 26.4 437.644 31.26 437.884 37.56H409.444C409.444 41.7 410.104 45.12 411.424 47.82C412.804 50.46 414.544 52.44 416.644 53.76C418.804 55.02 421.084 55.65 423.484 55.65C425.944 55.65 427.924 55.32 429.424 54.66C430.984 54 432.304 53.16 433.384 52.14C434.464 51.06 435.484 49.89 436.444 48.63ZM409.354 34.23H429.424C429.364 32.01 428.974 29.94 428.254 28.02C427.534 26.04 426.484 24.45 425.104 23.25C423.724 22.05 421.954 21.45 419.794 21.45C413.554 21.45 410.074 25.71 409.354 34.23ZM444.352 46.74H446.692C447.652 51.36 449.062 54.6 450.922 56.46C452.782 58.26 455.362 59.16 458.662 59.16C460.942 59.16 462.802 58.71 464.242 57.81C465.682 56.85 466.402 55.32 466.402 53.22C466.402 51.78 466.132 50.58 465.592 49.62C465.112 48.66 464.152 47.7 462.712 46.74C461.272 45.72 459.142 44.52 456.322 43.14C452.242 41.04 449.242 39.03 447.322 37.11C445.402 35.13 444.442 32.49 444.442 29.19C444.442 25.47 445.762 22.65 448.402 20.73C451.102 18.81 454.372 17.85 458.212 17.85C460.492 17.85 462.352 18.12 463.792 18.66C465.232 19.14 466.522 19.65 467.662 20.19H467.752L469.282 18.3H471.082L471.352 32.07H468.922C467.962 27.81 466.612 24.9 464.872 23.34C463.132 21.72 460.882 20.91 458.122 20.91C456.082 20.91 454.342 21.39 452.902 22.35C451.522 23.31 450.832 24.81 450.832 26.85C450.832 28.59 451.642 30.15 453.262 31.53C454.882 32.91 457.582 34.56 461.362 36.48C465.442 38.64 468.562 40.74 470.722 42.78C472.882 44.76 473.962 47.43 473.962 50.79C473.962 53.61 473.272 55.89 471.892 57.63C470.512 59.31 468.652 60.54 466.312 61.32C464.032 62.1 461.542 62.49 458.842 62.49C456.262 62.49 454.192 62.22 452.632 61.68C451.132 61.14 449.782 60.63 448.582 60.15H448.402L446.512 62.22H444.622L444.352 46.74Z" fill="white"/>
</svg>
